<svg id="圖層_1" data-name="圖層 1" xmlns="http://www.w3.org/2000/svg" viewBox="0 0 72 72"><defs><style>.cls-1{fill:#00b900;}.cls-2{fill:#fff;}</style></defs><circle class="cls-1" cx="36" cy="36" r="36"/><g id="TYPE_A" data-name="TYPE A"><path class="cls-2" d="M60,33.84C60,23.12,49.2,14.41,36,14.41S12.05,23.12,12.05,33.84c0,9.6,8.52,17.65,20,19.17.78.17,1.84.51,2.11,1.18a5,5,0,0,1,.08,2.17l-.34,2c-.11.6-.49,2.36,2.07,1.29s13.79-8.12,18.81-13.91h0C58.28,42,60,38.13,60,33.84"/><path class="cls-1" d="M31.13,28.66H29.45a.47.47,0,0,0-.46.47V39.56a.47.47,0,0,0,.46.47h1.68a.47.47,0,0,0,.47-.47V29.13a.47.47,0,0,0-.47-.47"/><path class="cls-1" d="M42.7,28.66H41a.47.47,0,0,0-.47.47v6.19l-4.78-6.45,0-.05h0l0,0h0l0,0h0l0,0h0l0,0H33.7a.47.47,0,0,0-.47.47V39.56a.47.47,0,0,0,.47.47h1.68a.47.47,0,0,0,.47-.47v-6.2l4.78,6.47a.6.6,0,0,0,.12.11h.15L41,40H42.7a.47.47,0,0,0,.46-.47V29.13a.47.47,0,0,0-.46-.47"/><path class="cls-1" d="M27.09,37.41H22.52V29.13a.47.47,0,0,0-.46-.47H20.38a.47.47,0,0,0-.47.47V39.56h0a.46.46,0,0,0,.13.32h0a.49.49,0,0,0,.33.13h6.71a.47.47,0,0,0,.46-.47V37.88a.47.47,0,0,0-.46-.47"/><path class="cls-1" d="M52,31.27a.47.47,0,0,0,.47-.46V29.13a.47.47,0,0,0-.47-.47H45.26a.44.44,0,0,0-.32.13h0a.44.44,0,0,0-.13.32h0V39.56h0a.42.42,0,0,0,.14.32h0a.46.46,0,0,0,.32.13H52a.47.47,0,0,0,.47-.47V37.88a.47.47,0,0,0-.47-.47H47.41V35.65H52a.47.47,0,0,0,.47-.47V33.5A.47.47,0,0,0,52,33H47.41V31.27Z"/></g></svg>