<?xml version="1.0" encoding="utf-8"?>
<!-- Generator: Adobe Illustrator 24.2.0, SVG Export Plug-In . SVG Version: 6.00 Build 0)  -->
<svg version="1.1" id="Layer_1" xmlns="http://www.w3.org/2000/svg" xmlns:xlink="http://www.w3.org/1999/xlink" x="0px" y="0px"
	 viewBox="0 0 72 72" style="enable-background:new 0 0 72 72;" xml:space="preserve">
<style type="text/css">
	.st0{fill:#1877F2;}
	.st1{fill:#FFFFFF;}
</style>
<g>
	<path class="st0" d="M72,36C72,16.1,55.9,0,36,0S0,16.1,0,36c0,18,13.2,32.9,30.4,35.6V46.4h-9.1V36h9.1v-7.9c0-9,5.4-14,13.6-14
		c3.9,0,8.1,0.7,8.1,0.7v8.9h-4.5c-4.5,0-5.9,2.8-5.9,5.6V36h10L50,46.4h-8.4v25.2C58.8,68.9,72,54,72,36z"/>
	<path class="st1" d="M50,46.4L51.6,36h-10v-6.8c0-2.8,1.4-5.6,5.9-5.6H52v-8.9c0,0-4.1-0.7-8.1-0.7c-8.2,0-13.6,5-13.6,14V36h-9.1
		v10.4h9.1v25.2c1.8,0.3,3.7,0.4,5.6,0.4s3.8-0.1,5.6-0.4V46.4H50z"/>
</g>
</svg>
